<svg width="54" height="54" viewBox="0 0 54 54" fill="none" xmlns="http://www.w3.org/2000/svg">
<path d="M25.177 6.05957H36.8159V29.614H19.5903" stroke="white" stroke-width="2"/>
<path d="M12.4937 36.6108V30.2679C15.2396 29.5068 18.2934 29.9508 19.477 30.2679V36.6108H12.4937Z" stroke="white" stroke-width="2"/>
<path d="M12.1453 32.296C10.0891 31.6352 5.2551 31.8529 2.36865 38.0097C2.36865 41.78 2.36865 49.5304 2.36865 50.3699C2.36865 51.4194 3.64893 52.5854 4.92921 52.4688C5.95344 52.3756 20.5641 52.43 27.7415 52.4688C28.3622 52.2745 29.6503 51.5826 29.8365 50.3699C30.0227 49.1572 29.9141 41.6245 29.8365 38.0097C29.0606 35.561 25.6232 30.99 19.9434 32.296" stroke="white" stroke-width="2"/>
<path d="M8.0686 32.646L8.18499 52.0029" stroke="white" stroke-width="2"/>
<path d="M23.8977 32.646C24.0829 33.1124 23.9749 45.8225 23.8977 52.1192" stroke="white" stroke-width="2"/>
<path d="M12.1409 23.0842C13.3436 24.2503 16.424 25.8128 19.1242 22.7344" stroke="white" stroke-width="2"/>
<path d="M4.57764 12.5898C2.44384 13.5227 -0.543485 16.158 4.57764 19.2364V12.5898Z" stroke="white" stroke-width="2"/>
<path d="M26.6931 12.3569C28.9767 13.3716 32.1737 16.2381 26.6931 19.5865V12.3569Z" stroke="white" stroke-width="2"/>
<path d="M25.6436 12.2397C18.1016 7.66872 9.38796 10.3351 5.97388 12.2397C6.90499 15.5046 9.62073 14.9994 10.8622 14.3386C16.4489 12.8227 21.6864 14.9216 23.0831 14.9216C24.2004 14.9216 25.2557 13.1337 25.6436 12.2397Z" stroke="white" stroke-width="2"/>
<path d="M10.3978 1.51224C7.60446 2.25852 5.81983 6.52619 5.39307 8.5085V19.1196C5.39307 27.6085 12.6092 30.2362 16.5664 29.8475C20.384 30.1274 24.6351 24.9501 25.1792 22.9678C25.606 21.413 26.5992 16.8341 26.2267 10.4907C25.8543 4.14733 21.5324 1.58987 19.9417 1.2789C17.4975 0.96795 13.1911 0.765965 10.3978 1.51224Z" stroke="white" stroke-width="2"/>
<path d="M23.0854 26.2324H36.3538" stroke="white" stroke-width="2"/>
<path d="M37.2788 8.7417H49.6161L52.4094 18.6532V28.3315C52.3706 28.798 50.7334 29.7075 48.2194 29.6142" stroke="white" stroke-width="2"/>
<path d="M48.0378 31.1299C48.0378 32.0288 47.6839 32.7125 47.1279 33.1863C46.5568 33.673 45.7214 33.9779 44.7314 33.9779C43.7415 33.9779 42.9061 33.673 42.335 33.1863C41.779 32.7125 41.425 32.0288 41.425 31.1299C41.425 29.2976 42.9071 27.8154 44.7314 27.8154C46.5558 27.8154 48.0378 29.2976 48.0378 31.1299Z" stroke="white" stroke-width="2"/>
<path d="M32.9768 34.7451H27.8557" stroke="white" stroke-width="2"/>
<path d="M35.6506 34.7451C36.2093 34.7451 47.5999 34.7451 53.2254 34.7451" stroke="white" stroke-width="2"/>
<path d="M40.1934 8.9751V17.0209C40.2322 17.5651 40.752 18.6534 42.5211 18.6534C44.2903 18.6534 49.7761 18.6534 52.2978 18.6534" stroke="white" stroke-width="2"/>
<path d="M44.1477 12.2397L48.5705 14.8051" stroke="white" stroke-width="2"/>
<path d="M51.8308 22.6182H49.9686C49.3478 23.0846 48.4788 24.3906 49.9686 25.8831H51.8308" stroke="white" stroke-width="2"/>
<path d="M41.9392 21.8018H44.0342" stroke="white" stroke-width="2"/>
<path d="M37.3965 29.6138H41.1209" stroke="white" stroke-width="2"/>
</svg>
