<svg width="62" height="68" viewBox="0 0 62 68" fill="none" xmlns="http://www.w3.org/2000/svg">
<path d="M30.1855 1.33046L30.1844 1.33106C30.1673 1.3399 30.1293 1.36976 30.0802 1.4422C30.0332 1.51145 29.9861 1.60471 29.9442 1.71666C29.8602 1.94131 29.8066 2.2162 29.8066 2.46965C29.8066 2.75907 29.6869 3.18151 29.5302 3.58119C29.3706 3.98828 29.1558 4.41408 28.9366 4.71559L28.936 4.71633C28.6058 5.16694 28.0956 5.58053 27.5611 5.88123C27.0298 6.18011 26.4411 6.38624 25.946 6.38624C25.6086 6.38624 25.3754 6.51896 25.2508 6.69624C25.1268 6.87269 25.0848 7.12939 25.2019 7.432C25.2808 7.63419 25.3215 7.68277 25.4 7.72423C25.5157 7.78542 25.7232 7.83023 26.1954 7.8969L26.1963 7.89704C28.108 8.17416 29.5294 9.72501 29.8044 11.791L29.8045 11.791L29.805 11.7954C29.8277 11.9932 29.8649 12.2048 29.9049 12.3852C29.9456 12.5686 29.9848 12.699 30.0086 12.7525C30.0962 12.9224 30.3909 13.0641 30.7412 12.9693C30.8489 12.9389 30.9289 12.8821 31.0037 12.7253C31.088 12.5488 31.156 12.2628 31.2152 11.7927L31.2152 11.7927L31.2154 11.791C31.4904 9.72501 32.9119 8.17416 34.8235 7.89703L34.8244 7.8969C35.2966 7.83023 35.5041 7.78542 35.6199 7.72423C35.6983 7.68277 35.7391 7.63419 35.818 7.43199C35.9351 7.12938 35.8931 6.87269 35.769 6.69624C35.6444 6.51896 35.4112 6.38624 35.0739 6.38624C34.5788 6.38624 33.99 6.18011 33.4588 5.88123C32.9243 5.58053 32.4141 5.16694 32.0838 4.71634L32.0833 4.71559C31.864 4.41408 31.6492 3.98828 31.4896 3.58119C31.333 3.18151 31.2132 2.75907 31.2132 2.46965C31.2132 1.93007 31.0644 1.56705 30.8778 1.38568C30.7875 1.29782 30.6874 1.25059 30.5808 1.23867C30.4729 1.22659 30.3404 1.24887 30.1855 1.33046ZM31.4781 6.05527L31.4792 6.05636L32.3014 6.93738L32.4594 7.10672L32.3026 7.27719L31.5042 8.14526L31.5042 8.14526L31.503 8.14661L30.6927 9.01468L30.5086 9.21191L30.3259 9.01332L29.5288 8.14661L29.5275 8.14526L28.7185 7.27855L28.5616 7.1105L28.7159 6.94012L29.4895 6.08614C29.4896 6.08595 29.4898 6.08577 29.49 6.08558C29.6453 5.91207 29.7914 5.75015 29.9143 5.61407C29.9612 5.56203 30.0048 5.51378 30.0442 5.47009C30.1157 5.39066 30.1728 5.32694 30.2119 5.28249C30.212 5.28236 30.2121 5.28224 30.2123 5.28211V5.12183H30.4623C30.5239 5.12183 30.5691 5.14546 30.5756 5.14883C30.5758 5.14897 30.576 5.14907 30.5762 5.14914C30.5901 5.15623 30.6006 5.16318 30.6054 5.16648C30.6158 5.17357 30.624 5.18026 30.6279 5.18348C30.6367 5.1908 30.6456 5.19878 30.6527 5.20534C30.6677 5.21925 30.6871 5.23798 30.7093 5.25989C30.7544 5.30421 30.8171 5.36745 30.8927 5.44483C31.0443 5.59989 31.2509 5.81472 31.4781 6.05527Z" fill="white" stroke="#979797" stroke-width="0.5"/>
<path d="M2.91472 18.0175L2.91475 18.0175L2.91156 18.0204C2.36916 18.5141 1.72794 18.824 1.09883 18.824C0.974464 18.824 0.785989 18.8833 0.607813 18.9853C0.521992 19.0344 0.447843 19.0882 0.39286 19.1395C0.334361 19.194 0.313165 19.231 0.30865 19.2433L0.0740259 19.157L0.309621 19.2406C0.202066 19.5436 0.246805 19.7644 0.38703 19.9333C0.540667 20.1184 0.843364 20.283 1.33555 20.3752C2.83909 20.6571 3.81205 21.7791 4.05126 23.4354L4.05129 23.4356C4.10889 23.8364 4.19951 24.0835 4.30834 24.2269C4.40407 24.3531 4.52376 24.4131 4.70947 24.4131C4.85358 24.4131 5.01572 24.3388 5.14686 24.2038C5.27762 24.0693 5.35319 23.8992 5.35319 23.7432C5.35319 22.0807 6.62013 20.5883 8.24466 20.3353C8.89912 20.2264 9.16641 19.9188 9.16641 19.5975C9.16641 19.3664 9.10151 19.2181 8.98369 19.1082C8.85567 18.9887 8.63672 18.8877 8.27634 18.8201C7.45661 18.6825 6.77647 18.3363 6.27856 17.8038C5.78029 17.271 5.47861 16.5666 5.39035 15.7373L5.39034 15.7373L5.39015 15.7353C5.37389 15.5703 5.33831 15.3946 5.29485 15.247C5.24784 15.0873 5.20253 14.9984 5.18421 14.9763L5.18407 14.9764L5.17836 14.969C5.09949 14.866 4.97453 14.7902 4.8334 14.7576C4.69225 14.725 4.55633 14.7403 4.45776 14.7913C4.36482 14.8425 4.26581 14.9513 4.18853 15.118C4.11209 15.2828 4.06575 15.4865 4.06575 15.6978C4.06575 16.0485 3.91046 16.499 3.70378 16.9085C3.4942 17.3237 3.21031 17.7389 2.91472 18.0175ZM5.41976 20.2828L5.41977 20.2828L5.41779 20.2849L4.9173 20.8291L4.73546 21.0268L4.5513 20.8312L4.0389 20.2871L3.5265 19.7429L3.36885 19.5755L3.52253 19.4045L4.02301 18.8474L4.023 18.8474L4.02498 18.8452L4.52547 18.3011L4.70732 18.1034L4.89147 18.2989L5.40388 18.8431L5.91628 19.3872L6.07392 19.5546L5.92024 19.7257L5.41976 20.2828Z" fill="white" stroke="#979797" stroke-width="0.5"/>
<path d="M56.0232 14.7872L56.0217 14.7878L52.6942 18.5741L52.7401 18.8198C52.7395 18.8199 52.7389 18.82 52.7383 18.8202C52.3777 18.8877 52.1587 18.9888 52.0306 19.1083C51.9128 19.2182 51.8479 19.3664 51.8479 19.5975C51.8479 19.9188 52.1151 20.2264 52.7693 20.3353C54.3436 20.5746 55.4211 21.7609 55.6117 23.4289C55.6564 23.792 55.7537 24.0433 55.8748 24.1983C55.9887 24.3441 56.1287 24.4131 56.3049 24.4131C56.4906 24.4131 56.6103 24.3531 56.706 24.2269C56.8148 24.0835 56.9054 23.8364 56.963 23.4356L56.9631 23.4355C57.2023 21.7792 58.1752 20.6571 59.6788 20.3753C60.171 20.283 60.4737 20.1184 60.6273 19.9334C60.7672 19.7648 60.8121 19.5446 60.7054 19.2426C60.7003 19.2297 60.6788 19.193 60.6215 19.1395C60.5665 19.0883 60.4924 19.0345 60.4065 18.9854C60.2284 18.8834 60.0399 18.8241 59.9155 18.8241C59.2864 18.8241 58.6452 18.5142 58.1028 18.0205L58.1027 18.0205L58.0996 18.0176C57.804 17.739 57.5201 17.3238 57.3106 16.9086C57.1039 16.4991 56.9486 16.0486 56.9486 15.698C56.9486 15.2493 56.7462 14.9053 56.5259 14.794C56.3428 14.7016 56.3089 14.6933 56.2856 14.6929C56.2593 14.6924 56.2195 14.7018 56.0232 14.7872ZM55.9235 14.5579C55.5899 14.7004 55.4588 14.9854 55.3754 15.7627L55.9235 14.5579ZM56.4789 20.827L56.2973 21.0291L56.1109 20.8313L55.5985 20.2871L55.5985 20.2872L55.5965 20.285L55.0961 19.7409L54.9422 19.5736L55.0941 19.4045L55.5946 18.8475L56.0951 18.2904L56.2767 18.0882L56.463 18.2861L56.9754 18.8302L56.9754 18.8302L56.9774 18.8323L57.4779 19.3765L57.6318 19.5437L57.4799 19.7128L56.9794 20.2699L56.4789 20.827Z" fill="white" stroke="#979797" stroke-width="0.5"/>
<mask id="path-4-inside-1" fill="white">
<path d="M15.9822 18.7164C14.5999 18.9755 13.2295 20.1415 12.6098 21.5796C12.4549 21.9554 11.3586 25.2332 10.1908 28.8479C9.02303 32.4625 8.02206 35.3776 7.98631 35.3258C7.93864 35.274 7.80756 34.8076 7.70032 34.3152C7.27133 32.4107 7.28324 32.4237 6.85426 32.2293C6.35377 32.0091 2.04006 31.9702 1.46808 32.1775C1.2655 32.2553 1.05101 32.4625 0.967593 32.6439C0.776931 33.1233 0.800764 37.4894 1.00334 37.7744C1.28933 38.189 1.7779 38.2668 4.185 38.2668C5.48388 38.2668 6.55635 38.3056 6.55635 38.3445C6.55635 38.3834 5.90095 39.4198 5.09064 40.6377C4.29225 41.8685 3.51769 43.0734 3.37469 43.3325C2.77887 44.3819 2.74312 44.8354 2.74312 51.9352C2.74312 55.8219 2.80271 58.7758 2.86229 59.0997C3.05295 59.9807 3.44619 60.784 4.06584 61.5095L4.6259 62.1832L4.67357 64.0748C4.70932 66.1348 4.7689 66.3421 5.53154 66.951C5.84137 67.2101 6.04395 67.2231 9.20177 67.2619C12.3596 67.3008 12.5622 67.2878 13.0388 67.0287C13.8372 66.6141 14.0636 66.0441 14.0636 64.4505V63.142H30.389H46.7144V64.4505C46.7144 66.0441 46.9408 66.6141 47.7392 67.0287C48.2158 67.2878 48.4184 67.3008 51.5762 67.2619C54.734 67.2231 54.9366 67.2101 55.2464 66.951C56.0091 66.3421 56.0687 66.1348 56.1044 64.0748L56.1521 62.1832L56.7122 61.5095C57.3318 60.784 57.725 59.9807 57.9157 59.0997C58.0706 58.3353 58.0706 45.5091 57.9038 44.7447C57.7131 43.8378 57.3437 43.1511 55.735 40.7025C54.9009 39.4457 54.2216 38.3834 54.2216 38.3445C54.2216 38.3056 55.2822 38.2668 56.593 38.2668C59.1312 38.2668 59.5959 38.1761 59.8104 37.6708C59.9891 37.2303 59.9891 33.0844 59.8104 32.6439C59.727 32.4625 59.5125 32.2553 59.3099 32.1775C58.7379 31.9702 54.4242 32.0091 53.9237 32.2293C53.4947 32.4237 53.5067 32.4107 53.0777 34.3152C52.9704 34.8076 52.8393 35.274 52.7917 35.3258C52.7559 35.3776 51.755 32.4625 50.5872 28.8479C49.4194 25.2332 48.3231 21.9554 48.1681 21.5796C47.5247 20.0768 46.1781 18.9755 44.6886 18.7164C43.7234 18.548 16.9235 18.548 15.9822 18.7164ZM44.5694 20.6598C45.2725 20.8282 45.9279 21.3076 46.2973 21.9165C46.5714 22.357 51.0042 35.7792 51.0042 36.155C51.0042 36.2845 50.4323 36.3234 48.1443 36.3234C45.4393 36.3234 45.2725 36.3363 45.0461 36.5825C44.7839 36.8675 44.7362 37.3599 44.9269 37.7485C45.1414 38.189 45.7015 38.2668 48.8593 38.2668H51.9337L53.8522 41.1818C54.9009 42.7883 55.8661 44.2912 55.9733 44.5244C56.164 44.9001 56.1878 45.4961 56.2236 50.9894L56.2593 57.0527H48.0847H39.9221V53.451C39.9221 51.4817 39.8744 49.4995 39.8148 49.059C39.5407 47.0379 38.2538 45.3795 36.514 44.8095C35.656 44.5244 25.122 44.5244 24.264 44.8095C22.5242 45.3795 21.2373 47.0379 20.9632 49.059C20.9036 49.4995 20.8559 51.4817 20.8559 53.451V57.0527H12.6933H4.51866L4.55441 50.9894C4.59015 45.4961 4.61399 44.9001 4.80465 44.5244C4.9119 44.2912 5.87712 42.7883 6.92575 41.1818L8.84428 38.2668L25.5152 38.2408L42.1742 38.202L42.4364 37.917C42.7581 37.5671 42.782 36.9453 42.4841 36.5825C42.2696 36.3234 42.1504 36.3234 26.0157 36.3234C12.6218 36.3234 9.77376 36.2975 9.77376 36.155C9.77376 35.8311 14.1828 22.4218 14.433 21.9813C14.7786 21.3853 15.3983 20.893 16.0656 20.6987C16.7925 20.4914 43.7234 20.4525 44.5694 20.6598ZM6.05586 35.1574C6.18694 35.7145 6.25844 36.2197 6.22269 36.2586C6.18694 36.2975 5.36472 36.3234 4.38758 36.3234H2.62396V35.2221V34.1209H4.22075H5.81754L6.05586 35.1574ZM58.1302 35.1833L58.0944 36.2586L56.4262 36.2975C55.5205 36.3104 54.7102 36.3104 54.6268 36.2716C54.5196 36.2327 54.5434 35.9477 54.7221 35.1703L54.9605 34.1209H56.5692H58.1659L58.1302 35.1833ZM36.4782 46.9083C37.1098 47.2711 37.8963 48.1909 37.8963 48.5796C37.8963 48.7351 36.8 48.761 30.389 48.761C23.978 48.761 22.8817 48.7351 22.8817 48.5796C22.8817 48.1909 23.6682 47.2711 24.2998 46.9083L24.9552 46.5585H30.389H35.8228L36.4782 46.9083ZM38.1108 51.7667L38.075 52.8421H30.389H22.703L22.6672 51.7667L22.6315 50.7044H30.389H38.1465L38.1108 51.7667ZM38.1346 55.9515V57.0527H30.389H22.6434V55.9515V54.8502H30.389H38.1346V55.9515ZM56.0091 59.1775C56.0091 59.5402 55.2226 60.4731 54.6387 60.797L54.0548 61.1338H30.389H6.72318L6.13928 60.797C5.55538 60.4731 4.7689 59.5402 4.7689 59.1775C4.7689 59.022 8.31996 58.9961 30.389 58.9961C52.458 58.9961 56.0091 59.022 56.0091 59.1775ZM12.2762 64.2432V65.3445H9.35668H6.43719V64.2432V63.142H9.35668H12.2762V64.2432ZM54.3408 64.2432V65.3445H51.4213H48.5018V64.2432V63.142H51.4213H54.3408V64.2432Z"/>
</mask>
<path d="M15.9822 18.7164C14.5999 18.9755 13.2295 20.1415 12.6098 21.5796C12.4549 21.9554 11.3586 25.2332 10.1908 28.8479C9.02303 32.4625 8.02206 35.3776 7.98631 35.3258C7.93864 35.274 7.80756 34.8076 7.70032 34.3152C7.27133 32.4107 7.28324 32.4237 6.85426 32.2293C6.35377 32.0091 2.04006 31.9702 1.46808 32.1775C1.2655 32.2553 1.05101 32.4625 0.967593 32.6439C0.776931 33.1233 0.800764 37.4894 1.00334 37.7744C1.28933 38.189 1.7779 38.2668 4.185 38.2668C5.48388 38.2668 6.55635 38.3056 6.55635 38.3445C6.55635 38.3834 5.90095 39.4198 5.09064 40.6377C4.29225 41.8685 3.51769 43.0734 3.37469 43.3325C2.77887 44.3819 2.74312 44.8354 2.74312 51.9352C2.74312 55.8219 2.80271 58.7758 2.86229 59.0997C3.05295 59.9807 3.44619 60.784 4.06584 61.5095L4.6259 62.1832L4.67357 64.0748C4.70932 66.1348 4.7689 66.3421 5.53154 66.951C5.84137 67.2101 6.04395 67.2231 9.20177 67.2619C12.3596 67.3008 12.5622 67.2878 13.0388 67.0287C13.8372 66.6141 14.0636 66.0441 14.0636 64.4505V63.142H30.389H46.7144V64.4505C46.7144 66.0441 46.9408 66.6141 47.7392 67.0287C48.2158 67.2878 48.4184 67.3008 51.5762 67.2619C54.734 67.2231 54.9366 67.2101 55.2464 66.951C56.0091 66.3421 56.0687 66.1348 56.1044 64.0748L56.1521 62.1832L56.7122 61.5095C57.3318 60.784 57.725 59.9807 57.9157 59.0997C58.0706 58.3353 58.0706 45.5091 57.9038 44.7447C57.7131 43.8378 57.3437 43.1511 55.735 40.7025C54.9009 39.4457 54.2216 38.3834 54.2216 38.3445C54.2216 38.3056 55.2822 38.2668 56.593 38.2668C59.1312 38.2668 59.5959 38.1761 59.8104 37.6708C59.9891 37.2303 59.9891 33.0844 59.8104 32.6439C59.727 32.4625 59.5125 32.2553 59.3099 32.1775C58.7379 31.9702 54.4242 32.0091 53.9237 32.2293C53.4947 32.4237 53.5067 32.4107 53.0777 34.3152C52.9704 34.8076 52.8393 35.274 52.7917 35.3258C52.7559 35.3776 51.755 32.4625 50.5872 28.8479C49.4194 25.2332 48.3231 21.9554 48.1681 21.5796C47.5247 20.0768 46.1781 18.9755 44.6886 18.7164C43.7234 18.548 16.9235 18.548 15.9822 18.7164ZM44.5694 20.6598C45.2725 20.8282 45.9279 21.3076 46.2973 21.9165C46.5714 22.357 51.0042 35.7792 51.0042 36.155C51.0042 36.2845 50.4323 36.3234 48.1443 36.3234C45.4393 36.3234 45.2725 36.3363 45.0461 36.5825C44.7839 36.8675 44.7362 37.3599 44.9269 37.7485C45.1414 38.189 45.7015 38.2668 48.8593 38.2668H51.9337L53.8522 41.1818C54.9009 42.7883 55.8661 44.2912 55.9733 44.5244C56.164 44.9001 56.1878 45.4961 56.2236 50.9894L56.2593 57.0527H48.0847H39.9221V53.451C39.9221 51.4817 39.8744 49.4995 39.8148 49.059C39.5407 47.0379 38.2538 45.3795 36.514 44.8095C35.656 44.5244 25.122 44.5244 24.264 44.8095C22.5242 45.3795 21.2373 47.0379 20.9632 49.059C20.9036 49.4995 20.8559 51.4817 20.8559 53.451V57.0527H12.6933H4.51866L4.55441 50.9894C4.59015 45.4961 4.61399 44.9001 4.80465 44.5244C4.9119 44.2912 5.87712 42.7883 6.92575 41.1818L8.84428 38.2668L25.5152 38.2408L42.1742 38.202L42.4364 37.917C42.7581 37.5671 42.782 36.9453 42.4841 36.5825C42.2696 36.3234 42.1504 36.3234 26.0157 36.3234C12.6218 36.3234 9.77376 36.2975 9.77376 36.155C9.77376 35.8311 14.1828 22.4218 14.433 21.9813C14.7786 21.3853 15.3983 20.893 16.0656 20.6987C16.7925 20.4914 43.7234 20.4525 44.5694 20.6598ZM6.05586 35.1574C6.18694 35.7145 6.25844 36.2197 6.22269 36.2586C6.18694 36.2975 5.36472 36.3234 4.38758 36.3234H2.62396V35.2221V34.1209H4.22075H5.81754L6.05586 35.1574ZM58.1302 35.1833L58.0944 36.2586L56.4262 36.2975C55.5205 36.3104 54.7102 36.3104 54.6268 36.2716C54.5196 36.2327 54.5434 35.9477 54.7221 35.1703L54.9605 34.1209H56.5692H58.1659L58.1302 35.1833ZM36.4782 46.9083C37.1098 47.2711 37.8963 48.1909 37.8963 48.5796C37.8963 48.7351 36.8 48.761 30.389 48.761C23.978 48.761 22.8817 48.7351 22.8817 48.5796C22.8817 48.1909 23.6682 47.2711 24.2998 46.9083L24.9552 46.5585H30.389H35.8228L36.4782 46.9083ZM38.1108 51.7667L38.075 52.8421H30.389H22.703L22.6672 51.7667L22.6315 50.7044H30.389H38.1465L38.1108 51.7667ZM38.1346 55.9515V57.0527H30.389H22.6434V55.9515V54.8502H30.389H38.1346V55.9515ZM56.0091 59.1775C56.0091 59.5402 55.2226 60.4731 54.6387 60.797L54.0548 61.1338H30.389H6.72318L6.13928 60.797C5.55538 60.4731 4.7689 59.5402 4.7689 59.1775C4.7689 59.022 8.31996 58.9961 30.389 58.9961C52.458 58.9961 56.0091 59.022 56.0091 59.1775ZM12.2762 64.2432V65.3445H9.35668H6.43719V64.2432V63.142H9.35668H12.2762V64.2432ZM54.3408 64.2432V65.3445H51.4213H48.5018V64.2432V63.142H51.4213H54.3408V64.2432Z" fill="white" stroke="#979797" mask="url(#path-4-inside-1)"/>
<path d="M44.3701 21.8256L44.2999 22.0656C44.3016 22.0661 44.3013 22.066 44.2984 22.0655C44.2921 22.0645 44.2736 22.0615 44.2369 22.0578C44.1895 22.0529 44.1243 22.048 44.0401 22.043C43.8721 22.0331 43.6363 22.0238 43.3308 22.015C42.7204 21.9974 41.8385 21.9825 40.6779 21.9703C38.3571 21.9461 34.9263 21.9331 30.3329 21.9331C24.6781 21.9396 21.2628 21.9493 19.2136 21.9768C18.1885 21.9906 17.5087 22.0087 17.0627 22.0329C16.8394 22.0451 16.6786 22.0585 16.5641 22.073C16.4443 22.0882 16.3932 22.1026 16.3777 22.1089L16.3777 22.109L16.3725 22.111C16.1531 22.1948 16.0277 22.2507 15.9084 22.3649C15.7848 22.4833 15.651 22.6818 15.472 23.0836C15.1124 23.8909 14.6172 25.4053 13.6373 28.4196L13.6373 28.4198C13.1311 29.9738 12.6726 31.4077 12.3407 32.4658C12.1748 32.995 12.0407 33.4295 11.9482 33.7378C11.9019 33.8921 11.8664 34.0136 11.8426 34.0991C11.8322 34.1364 11.8244 34.1656 11.8191 34.1869C11.82 34.1894 11.8209 34.1922 11.8221 34.1952C11.8321 34.2227 11.8486 34.2597 11.8712 34.3034C11.9167 34.3909 11.9796 34.4904 12.0459 34.5737L12.0459 34.5737L12.0468 34.5747L12.2577 34.8423H30.3922H48.5268L48.7377 34.5747L48.7386 34.5737C48.8049 34.4904 48.8678 34.3909 48.9133 34.3034C48.9359 34.2597 48.9523 34.2227 48.9624 34.1952C48.9636 34.1922 48.9645 34.1894 48.9654 34.1869C48.96 34.1655 48.9523 34.1364 48.9419 34.0991C48.9181 34.0135 48.8826 33.892 48.8363 33.7375C48.7438 33.429 48.6097 32.9941 48.4437 32.4641C48.1119 31.4044 47.6534 29.9671 47.1471 28.4066C46.1429 25.3131 45.6425 23.7821 45.2709 22.982C45.0865 22.5848 44.9474 22.3997 44.8181 22.2934C44.6898 22.1879 44.5509 22.1412 44.298 22.065L44.3701 21.8256ZM44.3701 21.8256C45.3591 22.1236 45.383 22.1625 47.3849 28.3294L16.2833 21.8774C16.6646 21.722 19.0241 21.6961 30.3327 21.6831C39.5201 21.6831 44.0603 21.7349 44.3701 21.8256ZM44.2188 23.6027L44.2236 23.6184L44.2456 23.6892C44.2653 23.7519 44.2945 23.8439 44.3322 23.9621C44.4075 24.1984 44.5165 24.5387 44.6513 24.9572C44.9208 25.7941 45.293 26.9435 45.704 28.1998L45.7041 28.2002C46.1154 29.4639 46.488 30.624 46.7578 31.4749C46.8927 31.9003 47.002 32.2488 47.0777 32.4945C47.1155 32.6172 47.1452 32.7151 47.1655 32.7844C47.1756 32.8188 47.1838 32.8475 47.1897 32.8692C47.1925 32.8798 47.1953 32.8907 47.1976 32.9006C47.1987 32.9054 47.2002 32.9121 47.2015 32.9196C47.202 32.9223 47.2059 32.9426 47.2059 32.9675C47.2059 33.0459 47.1705 33.1023 47.1437 33.133C47.1183 33.162 47.092 33.1785 47.0786 33.1862C47.0516 33.2016 47.0275 33.2086 47.0193 33.211C46.9989 33.2168 46.98 33.2197 46.9701 33.2211C46.9471 33.2244 46.919 33.2268 46.8899 33.2289C46.8298 33.2332 46.7437 33.2372 46.6347 33.241C46.4158 33.2487 46.0941 33.2561 45.6808 33.2631C44.8538 33.277 43.6549 33.2896 42.1658 33.3001C39.1875 33.3212 35.0459 33.3341 30.3922 33.3341C25.7385 33.3341 21.597 33.3212 18.6186 33.3001C17.1296 33.2896 15.9307 33.277 15.1037 33.2631C14.6904 33.2561 14.3687 33.2487 14.1498 33.241C14.0408 33.2372 13.9546 33.2332 13.8946 33.2289C13.8655 33.2268 13.8374 33.2244 13.8144 33.2211C13.8045 33.2197 13.7856 33.2168 13.7652 33.211C13.757 33.2086 13.7329 33.2016 13.7059 33.1862C13.6925 33.1785 13.6662 33.162 13.6408 33.133C13.614 33.1023 13.5786 33.0459 13.5786 32.9675C13.5786 32.9437 13.5821 32.924 13.5829 32.92C13.5829 32.9198 13.5829 32.9197 13.583 32.9196C13.5843 32.9121 13.5858 32.9054 13.5869 32.9006C13.5891 32.8907 13.592 32.8798 13.5948 32.8692C13.6007 32.8475 13.6089 32.8188 13.619 32.7844C13.6393 32.7151 13.6689 32.6172 13.7068 32.4945C13.7825 32.2488 13.8918 31.9003 14.0267 31.4749C14.2965 30.624 14.6691 29.4639 15.0804 28.2002L15.0805 28.1998C15.4915 26.9435 15.8637 25.7941 16.1332 24.9572C16.268 24.5387 16.377 24.1984 16.4523 23.9621C16.49 23.8439 16.5191 23.7519 16.5389 23.6892L16.5609 23.6184L16.5657 23.6024C16.5662 23.6008 16.5661 23.6012 16.5657 23.6027L16.5639 23.61C16.5634 23.6119 16.5625 23.6161 16.5615 23.6216L16.5615 23.6217C16.5611 23.6237 16.5576 23.6422 16.5576 23.6653C16.5634 23.6117 16.5997 23.5264 16.624 23.4957C16.6419 23.4781 16.6749 23.4534 16.6889 23.4452C16.7147 23.4312 16.7371 23.4251 16.7436 23.4234C16.7604 23.4188 16.7746 23.4169 16.7788 23.4164L16.7788 23.4164C16.7904 23.4148 16.8016 23.414 16.8088 23.4135C16.825 23.4124 16.846 23.4115 16.87 23.4108C16.9188 23.4092 16.9898 23.4077 17.081 23.4063C17.2639 23.4034 17.5327 23.4008 17.8778 23.3983C18.5682 23.3935 19.5663 23.3894 20.7975 23.3862C23.26 23.3797 26.6564 23.3765 30.3922 23.3765C34.1281 23.3765 37.5245 23.3797 39.987 23.3862C41.2182 23.3894 42.2163 23.3935 42.9067 23.3983C43.2518 23.4008 43.5206 23.4034 43.7035 23.4063C43.7947 23.4077 43.8657 23.4092 43.9145 23.4108C43.9384 23.4115 43.9595 23.4124 43.9757 23.4135C43.9829 23.414 43.9941 23.4148 44.0057 23.4164C44.0099 23.4169 44.024 23.4188 44.0409 23.4234C44.0474 23.4251 44.0698 23.4312 44.0956 23.4452C44.1096 23.4534 44.1426 23.4781 44.1605 23.4957C44.1847 23.5264 44.221 23.6117 44.2269 23.6653C44.2269 23.6423 44.2234 23.6239 44.223 23.6218L44.223 23.6216C44.222 23.6161 44.221 23.6119 44.2206 23.61L44.2188 23.6027ZM44.2188 23.6027L44.2187 23.6024L44.2184 23.6014C44.2184 23.6014 44.2186 23.6019 44.2188 23.6027ZM46.7104 33.0128L46.7101 33.0116C46.7112 33.0174 46.7117 33.0186 46.7104 33.0128ZM14.0741 33.0128C14.0728 33.0186 14.0733 33.0174 14.0744 33.0116L14.0741 33.0128Z" fill="white" stroke="#979797" stroke-width="0.5"/>
<path d="M9.87197 44.0599L9.87197 44.0599L9.87153 44.0605C9.72942 44.2601 9.68812 44.3531 9.67951 44.4306C9.67097 44.5074 9.69022 44.6098 9.78994 44.8394L9.78994 44.8394L9.79061 44.841C9.83331 44.9412 9.87806 44.9994 9.95214 45.0463C10.0364 45.0997 10.1787 45.151 10.4421 45.1888C10.9723 45.2647 11.8793 45.2722 13.5009 45.2462L13.5016 45.2462C14.9881 45.2266 15.7126 45.2168 16.0979 45.1747C16.2906 45.1537 16.3639 45.1274 16.3974 45.1086C16.4229 45.0943 16.4378 45.0797 16.4964 44.9992L16.4964 44.9991L16.5001 44.9942C16.7328 44.6906 16.7089 44.2313 16.5026 44.007C16.4612 43.9619 16.4397 43.9448 16.3937 43.9276C16.3323 43.9047 16.2224 43.8818 15.9978 43.8652C15.5508 43.832 14.7438 43.8286 13.1832 43.8286H10.0356L9.87197 44.0599Z" fill="white" stroke="#979797" stroke-width="0.5"/>
<path d="M44.2805 44.9942L44.2805 44.9942L44.2842 44.9992C44.3428 45.0797 44.3576 45.0943 44.3832 45.1086C44.4167 45.1274 44.49 45.1537 44.6827 45.1747C45.068 45.2168 45.7925 45.2266 47.2789 45.2462L47.2797 45.2462C48.9013 45.2722 49.8083 45.2647 50.3384 45.1888C50.6018 45.151 50.7442 45.0997 50.8284 45.0463C50.9025 44.9994 50.9473 44.9412 50.99 44.841L50.99 44.841L50.9906 44.8394C51.0904 44.6098 51.1096 44.5074 51.1011 44.4306C51.0925 44.3531 51.0512 44.2601 50.909 44.0605L50.9086 44.0599L50.745 43.8286H47.5974C46.0368 43.8286 45.2298 43.832 44.7828 43.8652C44.5582 43.8818 44.4483 43.9047 44.3869 43.9276C44.3408 43.9448 44.3194 43.9619 44.278 44.007C44.0716 44.2313 44.0477 44.6906 44.2805 44.9942Z" fill="white" stroke="#979797" stroke-width="0.5"/>
<path d="M16.5509 47.7496L16.5497 47.7489C15.0983 46.9413 12.8673 46.7123 11.1744 47.188C9.04885 47.7909 7.84106 49.1694 7.84106 50.7694C7.84106 51.8342 8.38261 52.7608 9.3292 53.4301C10.2793 54.1019 11.6349 54.5098 13.2275 54.5098C15.1444 54.5098 16.6563 53.9425 17.6817 52.8644C18.4563 52.0463 18.7083 51.0703 18.5108 50.1566C18.3125 49.2391 17.6538 48.3553 16.5509 47.7496ZM9.11091 50.5196L9.11089 50.5196L11.5949 48.826L11.5208 48.5873C11.5212 48.5871 11.5217 48.587 11.5221 48.5869C12.0232 48.4316 12.7874 48.388 13.5233 48.4257C14.26 48.4635 15.0179 48.5852 15.5046 48.7897C15.9978 48.9959 16.435 49.2928 16.7525 49.6205C17.0629 49.9407 17.2907 50.3243 17.2907 50.7046C17.2907 51.3057 16.8347 51.8505 16.2254 52.254C15.6028 52.6663 14.7581 52.9759 13.8429 53.0903C12.7367 53.2337 11.5039 52.9545 10.5805 52.4854C10.1183 52.2506 9.71791 51.9604 9.44817 51.6356C9.17892 51.3115 9.01883 50.9244 9.11091 50.5196Z" fill="white" stroke="#979797" stroke-width="0.5"/>
<path d="M45.6368 47.1878L45.6368 47.1879L45.6348 47.1884C44.0129 47.6418 42.922 48.498 42.4607 49.5726L42.4603 49.5736C42.0363 50.5493 42.1508 51.5261 42.6992 52.3619C43.2518 53.2042 44.2555 53.9164 45.6246 54.3122C46.0927 54.4454 46.8137 54.5162 47.554 54.5146C48.2945 54.513 49.0216 54.439 49.5016 54.2995L49.5027 54.2991C51.0924 53.845 52.2222 52.999 52.7177 51.9583C53.2032 50.9256 52.9411 49.5443 52.0234 48.5706C51.3579 47.8716 50.3328 47.3593 49.1768 47.106C48.0227 46.8532 46.7604 46.8638 45.6368 47.1878ZM51.6627 50.5219L51.6627 50.522C51.7507 50.9261 51.5893 51.3122 51.3197 51.6359C51.0496 51.9604 50.6498 52.2506 50.1883 52.4854C49.2665 52.9544 48.0369 53.2336 46.9308 53.0904C46.0322 52.9825 45.1883 52.6726 44.5626 52.2648C43.9538 51.8679 43.4824 51.3298 43.4824 50.7436C43.4824 50.269 43.7551 49.8276 44.1606 49.4669C44.5696 49.1031 45.1393 48.7966 45.8023 48.5877L45.8022 48.5877L45.8066 48.5864C46.3283 48.4323 47.0965 48.3848 47.8379 48.421C48.5779 48.4571 49.3357 48.5788 49.8346 48.7898C50.2589 48.9648 50.6765 49.2478 51.0033 49.5516C51.3208 49.8468 51.5922 50.1984 51.6627 50.5219Z" fill="white" stroke="#979797" stroke-width="0.5"/>
</svg>
