<svg width="50" height="55" viewBox="0 0 50 55" fill="none" xmlns="http://www.w3.org/2000/svg">
<path d="M22.1427 0.942616C18.8146 1.54894 15.8808 3.9847 14.4668 7.31949C13.6396 9.25346 13.4665 10.6856 13.4665 15.5154C13.4665 19.0279 13.5338 19.8537 13.8993 20.7214C14.3322 21.7563 15.3999 22.739 16.4195 23.0317C16.8042 23.1467 16.8235 23.1781 16.9774 23.753C17.2755 24.9448 18.1605 26.6697 18.8049 27.3283C19.0262 27.5582 19.0454 27.6523 19.0454 28.4886V29.4086L18.5452 29.5131C18.2663 29.5758 17.2178 29.7849 16.2078 29.994C15.2075 30.1926 14.3322 30.3808 14.2744 30.4017C14.2167 30.4226 12.0717 28.1541 9.49385 25.3629L4.82869 20.2719L4.72288 19.3937C4.58821 18.2856 4.28041 17.5539 3.64556 16.8221C3.155 16.2576 2.18349 15.6199 1.80835 15.6199C1.64483 15.6199 1.63521 15.4735 1.63521 12.9541V10.2884H0.817606H0V23.2512V36.2245L0.798369 36.1932L1.58712 36.1618L1.61598 33.0988C1.63521 30.2972 1.65445 30.0358 1.80835 29.9731C2.40472 29.7536 3.02995 29.3772 3.38585 29.0113L3.80908 28.5932L5.81943 30.778L7.82016 32.9525L7.5316 33.3602C7.36808 33.5797 7.11799 34.0083 6.9737 34.3219C6.41581 35.545 6.41581 35.5241 6.37733 39.8938L6.33885 43.95H7.15646H7.98369V48.2361V52.5222H5.57896H3.17424V53.4107V54.2993H24.6244H46.0745V53.4107V52.5222H43.6698H41.2651V48.2361V43.95H42.0923H42.9195L42.8714 39.8938C42.833 35.5241 42.8426 35.5973 42.2654 34.2801C41.948 33.5588 40.9861 32.3984 40.3032 31.928C39.5144 31.3739 38.6872 31.1439 34.8685 30.3599C32.8582 29.9626 30.9825 29.5758 30.7131 29.5131L30.2033 29.4086V28.4886C30.2033 27.6523 30.2226 27.5582 30.4438 27.3283C31.0883 26.6697 31.9732 24.9448 32.2714 23.753C32.4253 23.1781 32.4445 23.1467 32.8293 23.0317C33.8489 22.739 34.907 21.7563 35.3495 20.7214C35.7534 19.7701 35.8015 18.9547 35.7534 14.5327C35.715 9.97478 35.6957 9.85979 35.0128 8.34398C34.5703 7.37176 33.7431 6.32637 32.9255 5.7305C32.6177 5.51097 31.954 4.89419 31.4538 4.37149C30.338 3.22157 29.607 2.62569 28.6066 2.06118C26.6251 0.942616 24.3358 0.545364 22.1427 0.942616ZM25.6247 2.70932C27.4331 3.12748 28.7317 3.94288 30.5015 5.76186C31.0017 6.2741 31.6558 6.86998 31.9636 7.08951C32.6369 7.57038 33.1563 8.19762 33.5507 9.00257C34.0605 10.0584 34.1471 10.6438 34.1471 13.1632C34.1471 14.4072 34.1182 15.4108 34.0798 15.3899C34.0317 15.369 33.6854 15.1808 33.3102 14.9822L32.6081 14.6268V13.7591V12.9019H31.7905H30.9729V13.2782V13.6546L30.617 13.5814C29.9821 13.4559 29.0202 12.881 28.4623 12.306L27.914 11.7415L27.3561 12.1283C26.5674 12.6719 25.567 13.1632 24.6725 13.4246C23.9895 13.6336 23.5855 13.665 21.0942 13.7068L18.2759 13.7591V13.3305V12.9019H17.4583H16.6407V13.7591V14.6268L15.9385 14.9822C15.5634 15.1808 15.2075 15.369 15.169 15.3899C15.1209 15.4108 15.1017 14.3132 15.1209 12.9437C15.169 10.0584 15.2844 9.44164 16.0155 7.83173C17.189 5.26007 19.4783 3.29474 21.9792 2.71978C22.8641 2.52115 24.7783 2.5107 25.6247 2.70932ZM28.2892 14.3654C28.9529 14.8358 29.607 15.1181 30.4246 15.3063L30.9825 15.4317L30.9536 19.101L30.9151 22.7808L30.6554 23.638C29.4242 27.6314 25.2592 29.5131 21.7772 27.6419C20.3151 26.8474 19.1224 25.3525 18.5933 23.638L18.3336 22.7808L18.2951 19.0906L18.2663 15.4108H20.95C23.2393 15.4108 23.7779 15.3794 24.5378 15.2122C25.6247 14.9613 26.3077 14.7104 27.0772 14.2818C27.3946 14.1041 27.664 13.9577 27.6736 13.9473C27.6832 13.9473 27.9621 14.1354 28.2892 14.3654ZM16.6407 18.9129C16.6407 20.2092 16.6215 21.265 16.5926 21.265C16.5541 21.265 16.4195 21.2023 16.2752 21.1186C15.6403 20.7528 15.1113 19.7805 15.1017 18.9756C15.1017 18.202 15.294 17.7002 15.8423 17.1043C16.6503 16.2158 16.6407 16.1949 16.6407 18.9129ZM33.4064 17.1043C33.9547 17.7002 34.1471 18.202 34.1471 18.9756C34.1375 19.7805 33.6084 20.7528 32.9736 21.1186C32.8293 21.2023 32.6946 21.265 32.6562 21.265C32.6273 21.265 32.6081 20.2092 32.6081 18.9129C32.6081 16.1949 32.5984 16.2158 33.4064 17.1043ZM2.19311 17.7107C2.40472 17.8779 2.70291 18.2438 2.85681 18.5156L3.12614 19.0174V22.7808C3.12614 26.9101 3.13576 26.8474 2.51053 27.5687C2.2893 27.8405 1.82759 28.1646 1.68331 28.1646C1.65445 28.1646 1.63521 25.7393 1.63521 22.7808C1.63521 19.8224 1.67369 17.3971 1.71216 17.3971C1.76026 17.3971 1.97187 17.533 2.19311 17.7107ZM18.1797 37.364C18.1797 37.3954 17.9585 37.5835 17.6795 37.7822C17.4102 37.9808 16.9004 38.4303 16.5637 38.7648L15.9578 39.3921L10.2826 33.2243C5.20382 27.715 4.61707 27.0355 4.66517 26.8056C4.69402 26.6592 4.75174 25.7079 4.78059 24.673L4.83831 22.8122L11.5042 30.0567C15.1786 34.0501 18.1797 37.3326 18.1797 37.364ZM21.479 29.3668C22.5275 29.8895 23.3258 30.0672 24.6244 30.0672C25.9229 30.0672 26.7213 29.8895 27.7698 29.3668C28.1738 29.1681 28.5104 29.0009 28.5297 29.0009C28.5489 29.0009 28.5681 29.21 28.5681 29.4609C28.5681 29.879 28.5297 29.9626 28.0968 30.3808C26.1345 32.3043 23.1142 32.3043 21.152 30.3808C20.7191 29.9626 20.6806 29.879 20.6806 29.4609C20.6806 29.21 20.6999 29.0009 20.7191 29.0009C20.7383 29.0009 21.075 29.1681 21.479 29.3668ZM20.1805 31.7293C20.8922 32.4298 22.008 33.0884 22.9892 33.3497C23.8164 33.5797 25.4324 33.5797 26.2596 33.3497C27.2407 33.0779 28.3565 32.4298 29.0779 31.7189L29.7224 31.0708L33.9162 31.928C36.2248 32.3984 38.3121 32.8479 38.5622 32.9315C39.5337 33.2452 40.6014 34.3115 41.0054 35.3778C41.2074 35.9214 41.217 36.1304 41.2458 39.0575L41.2747 42.1728H38.9084H36.5518V39.1934V36.2141H35.7342H34.9166L34.8974 38.9425L34.8685 41.671L34.4357 40.9497C33.8681 40.0088 32.2522 38.2526 31.3576 37.6044C29.2126 36.0468 27.1061 35.3464 24.6244 35.3569C23.1431 35.3569 21.8638 35.5973 20.5267 36.1304L19.6995 36.4545L17.6411 34.2174C16.506 32.9838 15.5826 31.9593 15.5826 31.928C15.5826 31.8757 18.9877 31.1335 19.3628 31.1021C19.4687 31.1021 19.8342 31.3739 20.1805 31.7293ZM10.8405 36.235L12.6969 38.2526V40.2075V42.1728H10.3403H7.98369V39.1934C7.98369 36.2977 7.9933 36.2036 8.21454 35.545C8.43577 34.9178 8.81091 34.2278 8.93596 34.2278C8.96481 34.2278 9.8209 35.1373 10.8405 36.235ZM27.1445 37.3954C31.3095 38.5871 34.2721 42.2355 34.8685 46.898L34.9262 47.3997H34.1182H33.3102L33.2429 46.8039C33.1563 45.9989 32.685 44.4936 32.2522 43.6572C31.0787 41.3678 29.1164 39.737 26.7694 39.0784C25.4324 38.7021 23.8164 38.7021 22.4794 39.0784C20.1324 39.737 18.1701 41.3678 16.9966 43.6572C16.5637 44.4936 16.0924 45.9989 16.0058 46.8039L15.9385 47.3997H15.1305H14.3225L14.3803 46.898C14.8708 43.0823 16.9581 39.8834 20.0554 38.2212C20.9692 37.7299 21.5463 37.5208 22.6814 37.249C23.8933 36.9668 25.8556 37.0295 27.1445 37.3954ZM14.8227 40.9392C14.765 41.0751 14.6207 41.2947 14.5245 41.441L14.3322 41.7024V40.8661V40.0297L14.64 40.3643C14.9093 40.6674 14.9285 40.7302 14.8227 40.9392ZM26.048 40.6674C28.0006 41.1065 29.6647 42.3819 30.7324 44.2636C31.1556 45.0163 31.5596 46.1975 31.675 47.0025C31.7231 47.3475 31.7039 47.3997 31.5404 47.3997C31.4346 47.3997 31.0883 47.4938 30.7612 47.6193L30.1649 47.8284L26.8752 44.2531C24.6725 41.8592 23.6144 40.6361 23.6913 40.5838C23.8933 40.4479 25.2688 40.4897 26.048 40.6674ZM25.4035 45.1626L29.0298 49.1037L28.8567 49.5323C28.52 50.3896 28.5393 51.299 28.9048 52.334C28.9625 52.5012 28.9144 52.5222 28.5104 52.5222H28.0391L23.7394 47.8493C21.3636 45.2671 19.4302 43.1136 19.4302 43.0405C19.4302 42.7373 21.2962 41.2424 21.6906 41.2319C21.7387 41.2319 23.4124 42.9987 25.4035 45.1626ZM12.6969 45.6748V47.3997H11.9274H11.1579V48.2256V49.0619L14.5053 49.0933C17.8431 49.1246 17.8431 49.1246 18.2471 49.3755C18.7953 49.7101 19.0935 50.3582 19.0166 51.0272C18.9685 51.5604 18.7376 51.9472 18.2759 52.2922C17.9585 52.5222 17.9585 52.5222 13.7454 52.5222H9.52271V48.2361V43.95H11.1098H12.6969V45.6748ZM39.7261 48.2361V52.5222H35.5034C31.2903 52.5222 31.2903 52.5222 30.9729 52.2922C30.5111 51.9472 30.2803 51.5604 30.2322 51.0272C30.1552 50.3582 30.4534 49.7101 31.0017 49.3755C31.4057 49.1246 31.4057 49.1246 34.7531 49.0933L38.0908 49.0619V48.2256V47.3997H37.3213H36.5518V45.6748V43.95H38.1389H39.7261V48.2361ZM22.1235 48.4974L25.8267 52.5222H23.0469C20.4498 52.5222 20.2766 52.5117 20.344 52.334C20.3728 52.2399 20.469 51.8845 20.546 51.5604C20.7095 50.86 20.6037 49.94 20.2863 49.2605C19.8726 48.372 18.853 47.5984 17.92 47.4416C17.5256 47.3788 17.516 47.3684 17.5641 47.0443C17.6892 46.2603 18.2663 44.4727 18.3913 44.4727C18.4106 44.4727 20.0843 46.2812 22.1235 48.4974Z" fill="white"/>
<path d="M20.1613 17.4081C19.6323 17.8576 19.9593 18.8613 20.6423 18.8613C21.4214 18.8613 21.7004 17.8472 21.0751 17.3244C20.8443 17.1258 20.4499 17.1676 20.1613 17.4081Z" fill="white"/>
<path d="M28.1753 17.3244C27.5405 17.8576 27.829 18.8613 28.6178 18.8613C29.2911 18.8613 29.6085 17.8576 29.0891 17.4081C28.8006 17.1676 28.4062 17.1258 28.1753 17.3244Z" fill="white"/>
<path d="M21.488 22.7914C21.6227 23.8995 22.3056 24.924 23.2386 25.4467C23.6426 25.6662 23.8446 25.708 24.6237 25.708C25.4029 25.708 25.6049 25.6662 26.0089 25.4467C26.9419 24.924 27.6248 23.8995 27.7595 22.7914L27.8268 22.3L27.0189 22.3314L26.2205 22.3628L26.1532 22.7182C26.0762 23.1259 25.8261 23.5127 25.451 23.8159C25.0758 24.119 24.1717 24.119 23.7965 23.8159C23.4214 23.5127 23.1713 23.1259 23.0943 22.7182L23.027 22.3628L22.2286 22.3314L21.4207 22.3L21.488 22.7914Z" fill="white"/>
<path d="M0 53.4107V54.2993H0.817609H1.64484L1.61598 53.4317L1.58712 52.5744L0.798371 52.5431L0 52.5117V53.4107Z" fill="white"/>
<path d="M47.6809 52.5954C47.6424 52.6268 47.6135 53.0346 47.6135 53.4842V54.2998H48.4311H49.2487V53.411V52.5222H48.4985C48.0848 52.5222 47.7097 52.5536 47.6809 52.5954Z" fill="white"/>
</svg>
